<?xml version="1.0" standalone="no"?>
<!DOCTYPE svg PUBLIC "-//W3C//DTD SVG 20010904//EN"
 "http://www.w3.org/TR/2001/REC-SVG-20010904/DTD/svg10.dtd">
<svg version="1.0" xmlns="http://www.w3.org/2000/svg"
 width="512.000000pt" height="512.000000pt" viewBox="0 0 512.000000 512.000000"
 preserveAspectRatio="xMidYMid meet">
<metadata>
Created by potrace 1.14, written by Peter Selinger 2001-2017
</metadata>
<g transform="translate(0.000000,512.000000) scale(0.100000,-0.100000)"
fill="#000000" stroke="none">
<path d="M2479 4997 c-105 -39 -141 -83 -214 -257 -26 -63 -51 -119 -55 -125
-5 -5 -9 -13 -9 -17 -1 -4 -10 -28 -21 -54 -11 -25 -20 -48 -20 -50 0 -3 -11
-29 -24 -57 -13 -29 -81 -187 -151 -352 -70 -165 -135 -318 -145 -340 -10 -22
-39 -90 -66 -152 -54 -127 -40 -117 -189 -128 -49 -4 -97 -8 -105 -10 -8 -2
-53 -6 -100 -9 -47 -4 -98 -8 -115 -11 -16 -2 -64 -6 -105 -9 -72 -6 -120 -11
-220 -21 -25 -2 -79 -7 -120 -10 -41 -3 -91 -8 -110 -10 -19 -3 -69 -7 -110
-10 -41 -4 -88 -8 -105 -9 -16 -2 -66 -7 -110 -10 -149 -13 -180 -18 -221 -36
-55 -24 -89 -54 -127 -115 -28 -45 -31 -58 -31 -130 0 -128 9 -141 249 -350
125 -108 170 -148 175 -154 3 -3 37 -33 75 -65 39 -33 75 -64 80 -70 6 -6 42
-38 80 -71 39 -33 72 -62 75 -65 3 -3 39 -34 80 -69 41 -36 80 -70 85 -76 6
-5 44 -39 85 -75 41 -36 77 -67 80 -70 3 -3 35 -32 72 -64 53 -45 67 -63 63
-80 -2 -11 -20 -88 -39 -171 -19 -82 -37 -162 -40 -178 -3 -15 -7 -35 -10 -45
-3 -9 -7 -28 -10 -42 -13 -67 -37 -174 -41 -180 -2 -4 -7 -22 -10 -41 -3 -19
-13 -63 -21 -99 -12 -53 -37 -162 -89 -390 -2 -8 -13 -58 -25 -110 -12 -52
-23 -104 -26 -115 -2 -11 -7 -33 -11 -50 -25 -113 16 -227 105 -288 77 -54
175 -67 254 -34 30 13 516 297 675 396 96 59 139 85 378 227 138 82 256 150
262 152 7 2 25 -5 40 -16 16 -10 35 -22 43 -25 8 -4 29 -15 45 -26 95 -58 271
-164 298 -180 18 -10 214 -127 437 -261 223 -133 425 -252 450 -263 168 -76
373 56 373 242 0 31 -18 135 -40 231 -43 185 -216 943 -238 1045 -8 33 -23
100 -35 149 l-21 90 23 22 c13 12 104 92 203 179 99 86 193 169 210 184 16 14
68 59 115 100 47 41 87 77 90 80 3 3 34 31 70 61 36 30 70 60 75 66 6 6 62 55
125 110 63 54 130 113 149 129 119 103 146 153 145 265 -1 65 -5 82 -31 125
-51 87 -125 129 -241 140 -26 3 -69 7 -97 10 -27 2 -79 7 -115 10 -36 3 -83 8
-105 10 -22 2 -71 7 -110 10 -38 3 -88 8 -110 10 -22 2 -71 7 -110 10 -38 3
-88 8 -110 10 -22 2 -71 7 -110 10 -38 3 -88 8 -110 10 -94 9 -214 20 -340 31
-103 8 -125 11 -130 15 -4 5 -80 181 -350 814 -261 611 -249 586 -289 628 -68
72 -193 105 -277 74z"/>
</g>
</svg>
